<svg width="40" height="21" viewBox="0 0 40 21" fill="none" xmlns="http://www.w3.org/2000/svg">
<path d="M19.6317 3.74927C19.0179 5.21542 17.688 5.98766 16.665 5.48402C15.6419 4.96919 15.3146 3.36874 15.9284 1.89141C16.5422 0.425263 17.8721 -0.346981 18.8951 0.156657C19.9079 0.671486 20.2455 2.27193 19.6317 3.74927Z" fill="#231F20"/>
<path d="M3.68286 19.6754H0L3.57033 3.99548H7.2532L5.36061 12.2104L9.31969 8.57299H13.8926L8.65473 13.0833L11.5192 19.6754H7.62148L5.68798 15.0755L4.48082 16.1723L3.68286 19.6754Z" fill="#231F20"/>
<path d="M18.2813 8.573L15.7545 19.6754H12.0716L14.5985 8.573H18.2813V8.573Z" fill="#231F20"/>
<path d="M36.6445 12.8259L34.5985 12.3335C34.1688 12.2328 33.9847 12.0313 33.9847 11.6843C33.9847 11.1359 34.486 10.8338 35.0793 10.8338C36.133 10.8338 36.7468 11.3598 36.9105 12.0761H40C39.6829 9.6698 38.0768 8.30438 35.1816 8.30438C32.7878 8.30438 30.6087 9.62503 30.6087 12.2887C30.6087 14.0794 31.5601 15.0755 33.5243 15.5232L35.0077 15.8478C35.642 15.9932 35.8466 16.2171 35.8466 16.6424C35.8466 17.2356 35.2123 17.5153 34.486 17.5153C33.3709 17.5153 32.5115 16.911 32.3683 15.9037H29.3197C29.4834 18.6122 31.3658 20.0112 34.353 20.0112C36.9924 20.0112 39.2635 18.7688 39.2635 16.0492C39.2532 14.4711 38.4144 13.2512 36.6445 12.8259Z" fill="#231F20"/>
<path d="M27.9386 3.99548L26.5064 10.3189C26.1176 9.05424 24.9412 8.282 23.3452 8.282C19.9079 8.282 17.7289 11.7179 17.7289 15.5791C17.7289 18.1645 18.9565 19.9888 21.4117 19.9888C22.8951 19.9888 24.0511 19.1941 24.7979 17.8735L24.3683 19.6866H28.0511L31.6215 4.00668H27.9386V3.99548ZM24.8798 15.1091C24.266 16.5752 22.936 17.3475 21.913 16.8438C20.89 16.329 20.5626 14.7286 21.1764 13.2512C21.7903 11.7851 23.1202 11.0128 24.1432 11.5165C25.156 12.0313 25.4936 13.6429 24.8798 15.1091Z" fill="#231F20"/>
</svg>
