<svg width="35" height="30" viewBox="0 0 35 30" fill="none" xmlns="http://www.w3.org/2000/svg">
<path d="M21.0664 5.04898C22.6769 6.05007 23.8086 7.7911 24.0262 9.74976C24.6791 10.0544 25.419 10.2285 26.2025 10.2285C29.0316 10.2285 31.3385 7.92168 31.3385 5.09251C31.2514 2.30686 28.9881 0 26.1589 0C23.3733 0 21.11 2.26334 21.0664 5.04898ZM17.715 15.4951C20.5441 15.4951 22.851 13.1883 22.851 10.3591C22.851 7.52994 20.5441 5.22308 17.715 5.22308C14.8858 5.22308 12.5789 7.52994 12.5789 10.3591C12.5789 13.1883 14.8858 15.4951 17.715 15.4951ZM19.8477 15.8434H15.4951C11.8825 15.8434 8.96629 18.8031 8.96629 22.3722V27.6823V27.7694L9.3145 27.9C12.753 28.9881 15.7563 29.3363 18.2373 29.3363C23.0686 29.3363 25.8543 27.9435 26.0284 27.8564L26.3766 27.6823H26.4201V22.4157C26.4201 18.8031 23.4603 15.8434 19.8477 15.8434ZM28.3352 10.5767H24.0262C23.9827 12.3178 23.2427 13.8412 22.0675 14.9728C25.2884 15.9304 27.6388 18.8902 27.6388 22.4157V24.0697C31.9043 23.8956 34.3418 22.7204 34.5159 22.6334L34.8641 22.4593H34.9076V17.1491C34.8641 13.5365 31.9479 10.5767 28.3352 10.5767ZM8.70514 10.2285C9.70623 10.2285 10.6203 9.92386 11.4037 9.44508C11.6649 7.7911 12.5354 6.39828 13.7976 5.39719C13.7976 5.31013 13.7976 5.22308 13.7976 5.09251C13.8412 2.30686 11.5343 0 8.70514 0C5.87597 0 3.61263 2.30686 3.61263 5.13603C3.61263 7.92168 5.87597 10.2285 8.70514 10.2285ZM13.3189 14.9728C12.1437 13.8412 11.4473 12.3178 11.3602 10.6203C11.1861 10.6203 11.0555 10.5767 10.8814 10.5767H6.52885C2.91622 10.5767 0 13.493 0 17.1056V22.4157V22.5028L0.391731 22.6334C3.17738 23.5039 5.61481 23.8956 7.74757 24.0262V22.4157C7.74757 18.8902 10.098 15.9304 13.3189 14.9728Z" fill="black"/>
</svg>
